<mxfile host="app.diagrams.net" agent="Mozilla/5.0 (Windows NT 10.0; Win64; x64) AppleWebKit/537.36 (KHTML, like Gecko) Chrome/128.0.0.0 Safari/537.36" version="24.7.12">
  <diagram name="Page-1" id="mpantJKqknSrraF66lQP">
    <mxGraphModel>
      <root>
        <mxCell id="0" />
        <mxCell id="1" parent="0" />
        <mxCell id="2" value="Web Client" style="whiteSpace=wrap;strokeWidth=2;" vertex="1" parent="1">
          <mxGeometry x="38" width="94" height="34" as="geometry" />
        </mxCell>
        <mxCell id="3" value="API Gateway" style="rounded=1;absoluteArcSize=1;arcSize=14;whiteSpace=wrap;strokeWidth=2;" vertex="1" parent="1">
          <mxGeometry x="32" y="102" width="106" height="34" as="geometry" />
        </mxCell>
        <mxCell id="4" value="Microservices" style="rounded=1;absoluteArcSize=1;arcSize=14;whiteSpace=wrap;strokeWidth=2;" vertex="1" parent="1">
          <mxGeometry x="29" y="205" width="111" height="34" as="geometry" />
        </mxCell>
        <mxCell id="5" value="Database" style="rhombus;strokeWidth=2;whiteSpace=wrap;" vertex="1" parent="1">
          <mxGeometry x="28" y="307" width="114" height="114" as="geometry" />
        </mxCell>
        <mxCell id="6" value="Request" style="curved=1;startArrow=none;endArrow=block;exitX=0.5;exitY=0.99;entryX=0.5;entryY=0.01;" edge="1" parent="1" source="2" target="3">
          <mxGeometry relative="1" as="geometry">
            <Array as="points" />
          </mxGeometry>
        </mxCell>
        <mxCell id="7" value="Contains" style="curved=1;startArrow=none;endArrow=block;exitX=0.5;exitY=1;entryX=0.51;entryY=-0.01;" edge="1" parent="1" source="3" target="4">
          <mxGeometry relative="1" as="geometry">
            <Array as="points" />
          </mxGeometry>
        </mxCell>
        <mxCell id="8" value="Send Data" style="curved=1;startArrow=none;endArrow=block;exitX=0.36;exitY=0.98;entryX=0.23;entryY=0;" edge="1" parent="1" source="4" target="5">
          <mxGeometry relative="1" as="geometry">
            <Array as="points">
              <mxPoint x="36" y="273" />
            </Array>
          </mxGeometry>
        </mxCell>
        <mxCell id="9" value="Return Data" style="curved=1;startArrow=none;endArrow=block;exitX=0.77;exitY=0;entryX=0.65;entryY=0.98;" edge="1" parent="1" source="5" target="4">
          <mxGeometry relative="1" as="geometry">
            <Array as="points">
              <mxPoint x="134" y="273" />
            </Array>
          </mxGeometry>
        </mxCell>
      </root>
    </mxGraphModel>
  </diagram>
</mxfile>
